<?xml version="1.0" encoding="utf-8"?>
<!-- Generator: Adobe Illustrator 23.1.1, SVG Export Plug-In . SVG Version: 6.00 Build 0)  -->
<svg version="1.1" id="Layer_1" xmlns="http://www.w3.org/2000/svg" xmlns:xlink="http://www.w3.org/1999/xlink" x="0px" y="0px"
	 viewBox="0 0 90 90" style="enable-background:new 0 0 90 90;" xml:space="preserve">
<style type="text/css">
	.st0{fill:#97917C;}
	.st1{fill:#FFFFFF;}
</style>
<title>Fichier 1</title>
<g>
	<g>
		
			<rect x="32" y="32.2" transform="matrix(0.5708 -0.8211 0.8211 0.5708 -18.6044 44.7362)" class="st0" width="2.9" height="15.9"/>
		<path class="st0" d="M26.1,33.4c0,2.1-1.7,3.7-3.7,3.7s-3.7-1.7-3.7-3.7s1.7-3.7,3.7-3.7C24.5,29.7,26.1,31.4,26.1,33.4L26.1,33.4
			"/>
		<path class="st1" d="M24.4,33.4c0,1.1-0.8,2-2,2s-2-0.8-2-2c0-1.1,0.8-2,2-2l0,0C23.5,31.5,24.4,32.4,24.4,33.4"/>
		<path class="st0" d="M69.2,65.2v-0.5H39.7c-3.1,0-5.6-2.6-5.6-5.7v-1.4c0-3.1,2.5-5.7,5.7-5.7l0,0h29.4c3.1,0,5.7,2.5,5.7,5.7l0,0
			V59c0,3.1-2.6,5.7-5.7,5.7v1.1c3.7,0,6.7-3,6.7-6.7v-1.4c0-3.7-3-6.7-6.7-6.7H39.7C36,51,33,54,33,57.7v1.4c0,3.7,3,6.7,6.7,6.7
			h29.4V65.2z"/>
		<path class="st0" d="M44.7,58.3c0,1.7-1.3,3-3,3s-3-1.3-3-3c0-1.7,1.3-3,3-3c0,0,0,0,0.1,0C43.5,55.3,44.7,56.7,44.7,58.3
			C44.8,58.3,44.8,58.3,44.7,58.3"/>
		<path class="st0" d="M57.5,58.3c0,1.7-1.3,3-3,3s-3-1.3-3-3c0-1.7,1.3-3,3-3l0,0C56.1,55.3,57.5,56.7,57.5,58.3L57.5,58.3"/>
		<path class="st0" d="M70,58.3c0,1.7-1.3,3-3,3s-3-1.3-3-3c0-1.7,1.3-3,3-3l0,0C68.7,55.3,70,56.7,70,58.3L70,58.3"/>
		<path class="st0" d="M45,49.2h18.2c1.9,0,3.3-1.4,3.3-3.3V28c0-1.9-1.4-3.3-3.3-3.3l0,0h-15c-1.3,0-2.6,0.9-3.1,2.2l-3.2,9.3
			c-0.1,0.3-0.2,0.7-0.2,1.1V46C41.7,47.8,43.2,49.3,45,49.2"/>
		<path class="st1" d="M47.9,40h14.2c0.9,0,1.7-0.7,1.7-1.7l0,0v-9.2c0-0.9-0.7-1.7-1.7-1.7l0,0H49.5c-0.7,0-1.3,0.4-1.5,1.1
			l-1.7,4.7c-0.1,0.2-0.1,0.3-0.1,0.5v4.5C46.2,39.2,47,39.9,47.9,40C47.9,39.9,47.9,39.9,47.9,40"/>
		<path class="st0" d="M17.5,35.4l2.3,2.2L17,41.8c-0.6,0.9-0.8,2-0.7,3l0.3,2.8c0.1,0.6,0.3,1.2,0.6,1.8l5.7,10
			c0.1,0.2,0.1,0.6-0.2,0.7c-0.1,0-0.1,0.1-0.2,0.1c-3.4,0.4-6.9-0.3-9.9-2c-3.2-2-4.5-5.9-3.3-9.4C10.3,45.8,12.7,41.5,17.5,35.4"
			/>
		<path class="st0" d="M89.4,45h-0.5c0,24.3-19.6,43.9-43.9,43.9S1.1,69.3,1.1,45S20.7,1.1,45,1.1c11.7,0,22.8,4.6,31.1,12.9
			S89,33.4,88.9,45H90C89.9,20.1,69.8,0,45,0S0,20.1,0,45s20.1,45,44.9,45c24.9,0,45-20.1,45-45l0,0H89.4z"/>
	</g>
</g>
</svg>
