<?xml version="1.0" encoding="utf-8"?>
<!-- Generator: Adobe Illustrator 23.1.1, SVG Export Plug-In . SVG Version: 6.00 Build 0)  -->
<svg version="1.1" id="Layer_1" xmlns="http://www.w3.org/2000/svg" xmlns:xlink="http://www.w3.org/1999/xlink" x="0px" y="0px"
	 viewBox="0 0 90 90" style="enable-background:new 0 0 90 90;" xml:space="preserve">
<style type="text/css">
	.st0{fill:#97917C;}
</style>
<title>Fichier 6</title>
<g id="Calque_2">
	<g id="Calque_1-2">
		<path class="st0" d="M45,90C20.1,90,0,69.9,0,45S20.1,0,45,0s45,20.1,45,45l0,0C90,69.8,69.8,90,45,90 M45,1.6
			C21,1.6,1.6,21.1,1.6,45S21,88.4,45,88.4S88.4,69,88.4,45l0,0C88.4,21.1,69,1.6,45,1.6"/>
		<path class="st0" d="M53.7,44.8c0,4.7-3.8,8.4-8.4,8.4s-8.4-3.8-8.4-8.4s3.8-8.4,8.4-8.4l0,0C49.9,36.4,53.7,40.1,53.7,44.8"/>
		<path class="st0" d="M61.3,25.3c0,2.4-2,4.4-4.4,4.4s-4.4-2-4.4-4.4s2-4.4,4.4-4.4C59.4,21,61.3,22.9,61.3,25.3"/>
		<path class="st0" d="M70.1,46.8c0,2.4-2,4.4-4.4,4.4c-2.4,0-4.4-2-4.4-4.4s2-4.4,4.4-4.4l0,0C68.1,42.4,70.1,44.4,70.1,46.8"/>
		<path class="st0" d="M54.2,64.7c0,2.4-2,4.4-4.4,4.4c-2.4,0-4.4-2-4.4-4.4c0-2.4,2-4.4,4.4-4.4c0,0,0,0,0,0
			C52.2,60.3,54.2,62.2,54.2,64.7"/>
		<path class="st0" d="M28.7,51.8c0,2.4-1.9,4.4-4.3,4.4c-2.4,0-4.4-1.9-4.4-4.3c0-2.4,1.9-4.4,4.3-4.4c0,0,0,0,0.1,0
			C26.7,47.5,28.7,49.5,28.7,51.8C28.7,51.9,28.7,51.9,28.7,51.8"/>
		<path class="st0" d="M36,32c0,2.4-2,4.4-4.4,4.4s-4.4-2-4.4-4.4s2-4.4,4.4-4.4l0,0C34.1,27.6,36,29.6,36,32"/>
		<rect x="48.4" y="31" transform="matrix(0.4994 -0.8664 0.8664 0.4994 -1.4583 61.7781)" class="st0" width="8.6" height="2.2"/>
		
			<rect x="58.7" y="42" transform="matrix(7.463062e-02 -0.9972 0.9972 7.463062e-02 9.28 102.4832)" class="st0" width="2.2" height="8.6"/>
		
			<rect x="47.4" y="54.7" transform="matrix(0.9799 -0.1995 0.1995 0.9799 -10.8011 10.8628)" class="st0" width="2.2" height="8.6"/>
		
			<rect x="27.1" y="48.3" transform="matrix(0.9451 -0.3267 0.3267 0.9451 -14.4188 12.9663)" class="st0" width="8.6" height="2.2"/>
		
			<rect x="33.4" y="30.5" transform="matrix(0.6728 -0.7399 0.7399 0.6728 -14.4518 36.9071)" class="st0" width="2.2" height="8.6"/>
	</g>
</g>
</svg>
