<?xml version="1.0" encoding="utf-8"?>
<!-- Generator: Adobe Illustrator 23.1.1, SVG Export Plug-In . SVG Version: 6.00 Build 0)  -->
<svg version="1.1" id="Layer_1" xmlns="http://www.w3.org/2000/svg" xmlns:xlink="http://www.w3.org/1999/xlink" x="0px" y="0px"
	 viewBox="0 0 90 90" style="enable-background:new 0 0 90 90;" xml:space="preserve">
<style type="text/css">
	.st0{fill:#97917C;}
	.st1{fill:#FFFFFF;}
</style>
<title>Fichier 4</title>
<g id="Calque_2">
	<g id="Calque_1-2">
		<polygon class="st0" points="34.1,72.3 70.1,63.2 70.1,33.3 59.7,29.7 52.5,32.8 52.5,28.5 50.3,27.5 50.3,23.8 34.1,17.7 
			21.4,27.1 21.4,30.2 19.9,31.3 19.9,64.7 		"/>
		<polygon class="st1" points="43,28.3 43,34.8 35.6,33.3 35.6,26.3 		"/>
		<polygon class="st1" points="49.6,30.1 49.6,36.2 44.2,35.1 44.2,28.7 		"/>
		<polygon class="st1" points="43,37.7 43,44.4 35.6,43.7 35.6,36.3 		"/>
		<polygon class="st1" points="49.6,38.9 49.6,44.9 44.2,44.5 44.2,37.9 		"/>
		<polygon class="st1" points="43,46.8 43,53.8 35.6,53.8 35.6,46.4 		"/>
		<polygon class="st1" points="49.6,47.1 49.6,53.8 44.2,53.8 44.2,46.8 		"/>
		<polygon class="st1" points="22.2,32.4 26,30.2 26,36.4 22.2,37.9 		"/>
		<polygon class="st1" points="32.5,26.3 32.5,33.8 27.4,35.8 27.4,29.4 		"/>
		<polygon class="st1" points="22.2,40.4 26,38.9 26,44.8 22.2,45.5 		"/>
		<polygon class="st1" points="32.5,36.3 32.5,43.5 27.4,44.5 27.4,38.4 		"/>
		<polygon class="st1" points="22.2,47.6 26,47.2 26,53.2 22.2,53 		"/>
		<polygon class="st1" points="32.5,46.4 32.5,53.6 27.4,53.3 27.4,47 		"/>
		<polygon class="st1" points="51.4,47.2 59.7,47.6 59.7,63.8 51.4,66 		"/>
		<polygon class="st0" points="59.1,48.1 53.5,48.1 53.5,62.9 59.1,64.9 		"/>
		<polygon class="st1" points="60.7,33.1 64.2,34.1 64.2,39 60.7,38.3 		"/>
		<polygon class="st1" points="68.2,35.4 68.2,39.8 65.1,39.2 65.1,34.4 		"/>
		<polygon class="st1" points="60.7,40.4 64.2,41.1 64.2,46 60.7,45.6 		"/>
		<polygon class="st1" points="68.2,41.8 68.2,46.4 65.1,46.1 65.1,41.3 		"/>
		<polygon class="st1" points="60.7,47.6 64.2,47.9 64.2,52.9 60.7,52.8 		"/>
		<polygon class="st1" points="68.2,48.2 68.2,53 65.1,52.9 65.1,47.9 		"/>
		<path class="st0" d="M89.5,45h-0.6c0,24.2-19.7,43.9-43.9,43.9S1.1,69.2,1.1,45C1.1,20.8,20.8,1.1,45,1.1c11.6,0,22.8,4.6,31,12.9
			c8.2,8.2,12.9,19.4,12.9,31H90C90,20.1,69.9,0,45,0S0,20.1,0,45s20.1,45,45,45s45-20.1,45-45l0,0H89.5z"/>
	</g>
</g>
</svg>
