<?xml version="1.0" encoding="utf-8"?>
<!-- Generator: Adobe Illustrator 23.1.1, SVG Export Plug-In . SVG Version: 6.00 Build 0)  -->
<svg version="1.1" id="Layer_1" xmlns="http://www.w3.org/2000/svg" xmlns:xlink="http://www.w3.org/1999/xlink" x="0px" y="0px"
	 viewBox="0 0 90 90" style="enable-background:new 0 0 90 90;" xml:space="preserve">
<style type="text/css">
	.st0{fill:#97917C;}
	.st1{clip-path:url(#SVGID_2_);}
</style>
<title>Fichier 5</title>
<g id="Calque_2">
	<g id="Calque_1-2">
		<path class="st0" d="M89.5,45h-0.6c0,24.2-19.7,43.9-43.9,43.9C20.8,88.9,1.1,69.2,1.1,45C1.1,20.7,20.8,1.1,45,1.1
			c11.6,0,22.8,4.6,31,12.9c8.2,8.2,12.9,19.4,12.9,31H90C90,20.1,69.9,0,45,0S0,20.1,0,45c0,24.9,20.1,45,45,45s45-20.1,45-45l0,0
			H89.5z"/>
		<path class="st0" d="M26.1,59.3L22,54.9c-1.3-1.4-2.1-3.3-2.1-5.3V33.8c-0.1-1.7-1.5-2.9-3.2-2.8c-1.5,0.1-2.7,1.3-2.8,2.8v19.9
			c0,2.3,0.7,4.6,2.1,6.5l2.3,3.2l5.5,7.7l1.9,2.7h14.6l-2.1-10c-0.9-4.5-3.6-8.5-7.5-11.1l-4.5-3c-1.3-0.9-3.1-0.7-4.2,0.5
			c-1.2,1.3-1.2,3.4,0.1,4.7c2.5,2.6,6.1,6.5,6.1,6.5"/>
		<path class="st0" d="M64.6,59.3l4.2-4.5c1.3-1.4,2.1-3.3,2.1-5.3V33.8c0-1.7,1.3-3,3-3c1.7,0,3,1.3,3,3v19.9
			c0,2.3-0.7,4.6-2.1,6.5l-2.3,3.2l-5.5,7.7l-1.9,2.7H50.6l2.1-10c0.9-4.5,3.6-8.5,7.5-11.1l4.5-3c1.3-0.9,3.1-0.7,4.2,0.5
			c1.2,1.3,1.2,3.4-0.1,4.7l-6.1,6.5"/>
		<g>
			<defs>
				<rect id="SVGID_1_" x="24.8" y="21.3" width="40.9" height="34"/>
			</defs>
			<clipPath id="SVGID_2_">
				<use xlink:href="#SVGID_1_"  style="overflow:visible;"/>
			</clipPath>
			<g class="st1">
				<path class="st0" d="M49.2,27c1.9,1.2,3.2,3.2,3.4,5.5c3,1.4,6.5,0.1,7.9-2.9c1.4-3,0.1-6.5-2.9-7.9s-6.5-0.1-7.9,2.9
					C49.4,25.3,49.2,26.2,49.2,27 M45.4,39.2c3.3,0,5.9-2.6,5.9-5.9s-2.6-5.9-5.9-5.9c-3.3,0-5.9,2.6-5.9,5.9c0,0,0,0,0,0
					C39.4,36.5,42.1,39.2,45.4,39.2 M47.9,39.6h-5.1c-4.2,0-7.6,3.4-7.6,7.6v6.2v0.1l0.4,0.1c3.3,1.1,6.8,1.6,10.3,1.7
					c3.1,0.1,6.2-0.5,9-1.7l0.4-0.2l0,0v-6.2c0-4.2-3.4-7.6-7.6-7.6 M57.6,33.4h-4.9c0,1.9-0.9,3.8-2.3,5.1c3.8,1.1,6.4,4.7,6.5,8.6
					v1.9c2.7,0,5.4-0.6,8-1.6l0.4-0.2h0.1V41C65.2,36.8,61.8,33.4,57.6,33.4 M34.9,33c1.1,0,2.2-0.3,3.2-0.9
					c0.3-1.9,1.3-3.5,2.8-4.7c0-0.1,0-0.2,0-0.3c0-3.3-2.6-5.9-5.9-5.9c-3.3,0-5.9,2.6-5.9,5.9C28.9,30.4,31.6,33,34.9,33
					C34.9,33,34.9,33,34.9,33 M40.2,38.5c-1.4-1.3-2.2-3.1-2.2-5.1h-0.6h-5c-4.2,0-7.6,3.4-7.6,7.6v6.2v0.1l0.4,0.1
					c2.8,0.9,5.6,1.4,8.6,1.6v-1.9C33.8,43.2,36.4,39.7,40.2,38.5"/>
			</g>
		</g>
	</g>
</g>
</svg>
