<?xml version="1.0" encoding="utf-8"?>
<!-- Generator: Adobe Illustrator 23.1.1, SVG Export Plug-In . SVG Version: 6.00 Build 0)  -->
<svg version="1.1" id="Layer_1" xmlns="http://www.w3.org/2000/svg" xmlns:xlink="http://www.w3.org/1999/xlink" x="0px" y="0px"
	 viewBox="0 0 90 90" style="enable-background:new 0 0 90 90;" xml:space="preserve">
<style type="text/css">
	.st0{fill:#97917C;}
</style>
<title>Fichier 2</title>
<g id="Calque_2">
	<g id="Calque_1-2">
		<path class="st0" d="M89.4,45h-0.5c0,24.2-19.7,43.9-43.9,43.9S1.1,69.2,1.1,45S20.8,1.1,45,1.1c11.6,0,22.8,4.6,31,12.9
			c8.2,8.2,12.9,19.4,12.9,31H90C90,20.1,69.9,0,45,0S0,20.1,0,45s20.1,45,45,45s45-20.1,45-45l0,0H89.4z"/>
		<path class="st0" d="M18.6,56.1c-0.4-2.2-2.6-3.7-4.8-3.3c-1.7,0.3-3,1.6-3.3,3.3c-0.1,0.3-0.1,0.5-0.1,0.8c0,2.3,1.8,4.1,4.1,4.1
			c2.3,0,4.1-1.8,4.1-4.1C18.7,56.7,18.7,56.4,18.6,56.1 M15.6,57.2l-0.1,0.2l-0.1,0.2l-0.1,0.2c-0.2,0.2-0.5,0.3-0.7,0.3
			c-0.1,0-0.3,0-0.4-0.1c-0.1-0.1-0.2-0.1-0.3-0.2l-0.1-0.2l-0.1-0.2l-0.1-0.2V57c0-0.6,0.5-1,1-1s1,0.5,1,1L15.6,57.2z"/>
		<path class="st0" d="M37,56.1c-0.4-2.2-2.6-3.7-4.8-3.3c-1.7,0.3-3,1.6-3.3,3.3c-0.1,0.3-0.1,0.5-0.1,0.8c0,2.3,1.8,4.1,4.1,4.1
			s4.1-1.8,4.1-4.1C37.1,56.7,37,56.4,37,56.1 M33.9,57.2l-0.1,0.2l-0.1,0.2l-0.1,0.2c-0.2,0.2-0.5,0.3-0.7,0.3
			c-0.1,0-0.3,0-0.4-0.1c-0.1,0-0.2-0.1-0.3-0.2l-0.1-0.2L32,57.4l-0.1-0.2v-0.2c0-0.6,0.5-1,1-1c0.6,0,1,0.5,1,1L33.9,57.2z"/>
		<path class="st0" d="M85.1,47.6h1v-5.2H72.8c-0.6,0-1-0.5-1-1v-9.3h-4.1v15.5c0,0.6-0.5,1-1,1H6.3v5.2c0,0.6,0.5,1,1,1h1.4v-0.1
			c0.1-0.1,0.1-0.3,0.2-0.4C9,54.2,9.1,54,9.2,53.9c0.1-0.1,0.2-0.3,0.3-0.4L9.8,53l0.3-0.4l0.4-0.4l0.3-0.3l0.5-0.3l0.4-0.2
			c0.2-0.1,0.4-0.2,0.5-0.2s0.2-0.1,0.4-0.2c0.2-0.1,0.4-0.1,0.6-0.2c0.1,0,0.2-0.1,0.3-0.1c0.7-0.1,1.4-0.1,2.1,0
			c0.1,0,0.2,0.1,0.3,0.1c0.1,0,0.4,0.1,0.7,0.2s0.2,0.1,0.4,0.2c0.2,0.1,0.4,0.2,0.6,0.3c0.1,0.1,0.2,0.1,0.4,0.2l0.5,0.3l0.3,0.3
			c0.1,0.1,0.3,0.3,0.4,0.4l0.3,0.3c0.1,0.2,0.2,0.3,0.3,0.5c0.1,0.1,0.2,0.2,0.2,0.4c0.1,0.2,0.2,0.4,0.3,0.5l0.2,0.4v0.1h6.2
			c1.5-3.4,5.4-5,8.8-3.5c1.6,0.7,2.8,1.9,3.5,3.5H71v-0.1c0.1-0.1,0.1-0.3,0.2-0.4c0.1-0.2,0.1-0.3,0.2-0.5
			c0.1-0.1,0.2-0.3,0.3-0.4c0.1-0.1,0.2-0.3,0.3-0.4l0.3-0.4l0.4-0.4l0.3-0.3l0.5-0.3l0.4-0.2c0.2-0.1,0.4-0.2,0.5-0.2
			c0.2-0.1,0.2-0.1,0.4-0.2c0.2-0.1,0.4-0.1,0.6-0.2l0.3-0.1c0.7-0.1,1.4-0.1,2.1,0l0.3,0.1c0.2,0.1,0.4,0.1,0.7,0.2
			s0.2,0.1,0.4,0.2c0.2,0.1,0.4,0.2,0.6,0.3l0.4,0.2l0.5,0.3c0.1,0.1,0.2,0.2,0.3,0.3c0.1,0.1,0.3,0.3,0.4,0.4
			c0.1,0.1,0.2,0.2,0.3,0.3c0.1,0.2,0.2,0.3,0.3,0.5l0.2,0.4c0.1,0.2,0.2,0.4,0.3,0.5c0.1,0.1,0.1,0.2,0.2,0.4v0.1h2.4
			c0.6,0,1-0.5,1-1v-1h-1c-0.6,0-1-0.5-1-1c0-0.6,0.5-1,1-1h1v-1h-1c-0.6,0-1-0.5-1-1C84,48.2,84.5,47.7,85.1,47.6 M72.7,47.7h-2.1
			c-0.6,0-1-0.5-1-1c0-0.6,0.5-1,1-1h2.1c0.6,0,1,0.5,1,1C73.7,47.2,73.3,47.7,72.7,47.7"/>
		<path class="st0" d="M80.9,56.1c-0.4-2.2-2.6-3.7-4.8-3.3c-1.7,0.3-3,1.6-3.3,3.3c-0.1,0.3-0.1,0.5-0.1,0.8c0,2.3,1.8,4.1,4.1,4.1
			S81,59.2,81,57C81,56.7,81,56.4,80.9,56.1 M77.6,57.7l-0.2,0.1l-0.2,0.1L77.1,58h-0.2h-0.2l-0.2-0.1l-0.2-0.1l-0.2-0.1
			c-0.2-0.2-0.3-0.5-0.3-0.7c0-0.1,0-0.3,0.1-0.4c0.1-0.1,0.1-0.2,0.2-0.3c0.2-0.2,0.6-0.3,0.9-0.3l0.2,0.1l0.2,0.1l0.2,0.1
			c0.1,0.1,0.2,0.2,0.2,0.3c0.1,0.1,0.1,0.3,0.1,0.4C77.9,57.3,77.8,57.5,77.6,57.7z"/>
		<rect x="6.3" y="46.1" class="st0" width="60.5" height="1.8"/>
		<polygon class="st0" points="86.2,40.7 81.4,32.1 73.8,32.1 73.8,40.4 86.2,40.4 		"/>
		<polygon class="st0" points="36.2,19.7 35.7,20.8 55.4,30.7 55.8,29.7 		"/>
		<path class="st0" d="M45.5,23.7l-14.6-4.4c-0.6-0.1-0.9-0.7-0.8-1.3c0.1-0.6,0.7-0.9,1.3-0.8l14.9,3.3c0.9,0.2,1.4,1.1,1.1,1.9
			C47.2,23.4,46.3,23.9,45.5,23.7"/>
		<path class="st0" d="M61.8,47.9l3.6-0.5l-2-13.5c-0.2-1.3-0.9-2.5-2.1-3.2l-14.2-9c-0.6-0.3-1.4-0.1-1.8,0.5
			c-0.3,0.6-0.2,1.2,0.3,1.6l13.4,9.6c0.4,0.3,0.7,0.7,0.8,1.2L61.8,47.9z"/>
		<path class="st0" d="M20.4,22.8c0.1,0.2,0.2,0.4,0.4,0.6c0.4,0.3,1,0.2,1.3-0.2c0,0,0,0,0,0l0.5-0.8l8.6-1.8
			c0.5-0.1,0.8-0.5,0.7-1l-0.5-2.7c-0.4-2-2.2-3.2-4.2-2.9c-0.9,0.2-1.7,0.7-2.2,1.5l-4.4,6.7C20.4,22.3,20.3,22.6,20.4,22.8"/>
		<path class="st0" d="M20.4,22.8c0.1,0.2,0.2,0.4,0.4,0.6c0.4,0.3,1,0.2,1.3-0.2c0,0,0,0,0,0l3.6-5.4c0.3-0.4,0.2-1-0.3-1.3
			c-0.4-0.3-1-0.2-1.3,0.3l-3.6,5.4C20.4,22.4,20.3,22.6,20.4,22.8"/>
		<polygon class="st0" points="58.7,46.6 6.7,46.6 6.7,33.2 56.9,33.2 		"/>
		<polygon class="st0" points="8.2,45.3 6.1,45.3 6.1,32.1 8.1,32.1 		"/>
		<rect x="55.9" y="33.2" class="st0" width="1.8" height="1.3"/>
	</g>
</g>
</svg>
